<mxfile host="app.diagrams.net" modified="2023-09-26T19:32:12.679Z" agent="Mozilla/5.0 (Windows NT 10.0; Win64; x64) AppleWebKit/537.36 (KHTML, like Gecko) Chrome/116.0.0.0 Safari/537.36" etag="ONqOA9LSvgtPgh38io6A" version="21.8.2" type="device">
  <diagram id="C5RBs43oDa-KdzZeNtuy" name="Page-1">
    <mxGraphModel dx="2189" dy="3020" grid="1" gridSize="10" guides="1" tooltips="1" connect="1" arrows="1" fold="1" page="1" pageScale="1" pageWidth="827" pageHeight="1169" math="0" shadow="0">
      <root>
        <mxCell id="WIyWlLk6GJQsqaUBKTNV-0" />
        <mxCell id="WIyWlLk6GJQsqaUBKTNV-1" parent="WIyWlLk6GJQsqaUBKTNV-0" />
        <mxCell id="ESu2tCeOA5tl69guz21R-2" value="" style="edgeStyle=orthogonalEdgeStyle;rounded=0;orthogonalLoop=1;jettySize=auto;html=1;" parent="WIyWlLk6GJQsqaUBKTNV-1" source="ESu2tCeOA5tl69guz21R-0" target="ESu2tCeOA5tl69guz21R-1" edge="1">
          <mxGeometry relative="1" as="geometry" />
        </mxCell>
        <mxCell id="ESu2tCeOA5tl69guz21R-0" value="START" style="rounded=1;whiteSpace=wrap;html=1;" parent="WIyWlLk6GJQsqaUBKTNV-1" vertex="1">
          <mxGeometry x="390" y="-1670" width="120" height="60" as="geometry" />
        </mxCell>
        <mxCell id="ESu2tCeOA5tl69guz21R-4" value="" style="edgeStyle=orthogonalEdgeStyle;rounded=0;orthogonalLoop=1;jettySize=auto;html=1;" parent="WIyWlLk6GJQsqaUBKTNV-1" source="ESu2tCeOA5tl69guz21R-1" target="ESu2tCeOA5tl69guz21R-3" edge="1">
          <mxGeometry relative="1" as="geometry" />
        </mxCell>
        <mxCell id="ESu2tCeOA5tl69guz21R-1" value="int x,&lt;br&gt;int y,&lt;br&gt;int z" style="shape=parallelogram;perimeter=parallelogramPerimeter;whiteSpace=wrap;html=1;fixedSize=1;" parent="WIyWlLk6GJQsqaUBKTNV-1" vertex="1">
          <mxGeometry x="390" y="-1570" width="120" height="60" as="geometry" />
        </mxCell>
        <mxCell id="ESu2tCeOA5tl69guz21R-6" value="" style="edgeStyle=orthogonalEdgeStyle;rounded=0;orthogonalLoop=1;jettySize=auto;html=1;" parent="WIyWlLk6GJQsqaUBKTNV-1" source="ESu2tCeOA5tl69guz21R-3" target="ESu2tCeOA5tl69guz21R-5" edge="1">
          <mxGeometry relative="1" as="geometry" />
        </mxCell>
        <mxCell id="ESu2tCeOA5tl69guz21R-7" value="True" style="edgeLabel;html=1;align=center;verticalAlign=middle;resizable=0;points=[];" parent="ESu2tCeOA5tl69guz21R-6" vertex="1" connectable="0">
          <mxGeometry x="-0.047" y="-1" relative="1" as="geometry">
            <mxPoint as="offset" />
          </mxGeometry>
        </mxCell>
        <mxCell id="ESu2tCeOA5tl69guz21R-9" value="" style="edgeStyle=orthogonalEdgeStyle;rounded=0;orthogonalLoop=1;jettySize=auto;html=1;" parent="WIyWlLk6GJQsqaUBKTNV-1" source="ESu2tCeOA5tl69guz21R-3" target="ESu2tCeOA5tl69guz21R-8" edge="1">
          <mxGeometry relative="1" as="geometry" />
        </mxCell>
        <mxCell id="ESu2tCeOA5tl69guz21R-12" value="False" style="edgeLabel;html=1;align=center;verticalAlign=middle;resizable=0;points=[];" parent="ESu2tCeOA5tl69guz21R-9" vertex="1" connectable="0">
          <mxGeometry x="-0.2655" relative="1" as="geometry">
            <mxPoint as="offset" />
          </mxGeometry>
        </mxCell>
        <mxCell id="ESu2tCeOA5tl69guz21R-3" value="x==y &amp;amp;&amp;amp; y==z" style="rhombus;whiteSpace=wrap;html=1;" parent="WIyWlLk6GJQsqaUBKTNV-1" vertex="1">
          <mxGeometry x="395" y="-1480" width="110" height="110" as="geometry" />
        </mxCell>
        <mxCell id="ESu2tCeOA5tl69guz21R-31" style="edgeStyle=orthogonalEdgeStyle;rounded=0;orthogonalLoop=1;jettySize=auto;html=1;entryX=0;entryY=0.5;entryDx=0;entryDy=0;" parent="WIyWlLk6GJQsqaUBKTNV-1" source="ESu2tCeOA5tl69guz21R-5" target="ESu2tCeOA5tl69guz21R-30" edge="1">
          <mxGeometry relative="1" as="geometry">
            <Array as="points">
              <mxPoint x="210" y="-970" />
            </Array>
          </mxGeometry>
        </mxCell>
        <mxCell id="ESu2tCeOA5tl69guz21R-5" value="Ededler beraberdir" style="shape=document;whiteSpace=wrap;html=1;boundedLbl=1;" parent="WIyWlLk6GJQsqaUBKTNV-1" vertex="1">
          <mxGeometry x="160" y="-1465" width="120" height="80" as="geometry" />
        </mxCell>
        <mxCell id="ESu2tCeOA5tl69guz21R-11" value="" style="edgeStyle=orthogonalEdgeStyle;rounded=0;orthogonalLoop=1;jettySize=auto;html=1;" parent="WIyWlLk6GJQsqaUBKTNV-1" source="ESu2tCeOA5tl69guz21R-8" target="ESu2tCeOA5tl69guz21R-10" edge="1">
          <mxGeometry relative="1" as="geometry" />
        </mxCell>
        <mxCell id="ESu2tCeOA5tl69guz21R-13" value="False" style="edgeLabel;html=1;align=center;verticalAlign=middle;resizable=0;points=[];" parent="ESu2tCeOA5tl69guz21R-11" vertex="1" connectable="0">
          <mxGeometry x="0.088" y="-1" relative="1" as="geometry">
            <mxPoint as="offset" />
          </mxGeometry>
        </mxCell>
        <mxCell id="ESu2tCeOA5tl69guz21R-15" value="" style="edgeStyle=orthogonalEdgeStyle;rounded=0;orthogonalLoop=1;jettySize=auto;html=1;" parent="WIyWlLk6GJQsqaUBKTNV-1" source="ESu2tCeOA5tl69guz21R-8" target="ESu2tCeOA5tl69guz21R-14" edge="1">
          <mxGeometry relative="1" as="geometry" />
        </mxCell>
        <mxCell id="ESu2tCeOA5tl69guz21R-16" value="True" style="edgeLabel;html=1;align=center;verticalAlign=middle;resizable=0;points=[];" parent="ESu2tCeOA5tl69guz21R-15" vertex="1" connectable="0">
          <mxGeometry x="-0.1556" y="-1" relative="1" as="geometry">
            <mxPoint as="offset" />
          </mxGeometry>
        </mxCell>
        <mxCell id="ESu2tCeOA5tl69guz21R-8" value="x&amp;gt;y" style="rhombus;whiteSpace=wrap;html=1;" parent="WIyWlLk6GJQsqaUBKTNV-1" vertex="1">
          <mxGeometry x="560" y="-1465" width="80" height="80" as="geometry" />
        </mxCell>
        <mxCell id="ESu2tCeOA5tl69guz21R-25" style="edgeStyle=orthogonalEdgeStyle;rounded=0;orthogonalLoop=1;jettySize=auto;html=1;entryX=1;entryY=0.5;entryDx=0;entryDy=0;" parent="WIyWlLk6GJQsqaUBKTNV-1" source="ESu2tCeOA5tl69guz21R-10" target="ESu2tCeOA5tl69guz21R-20" edge="1">
          <mxGeometry relative="1" as="geometry">
            <Array as="points">
              <mxPoint x="750" y="-1170" />
            </Array>
          </mxGeometry>
        </mxCell>
        <mxCell id="ESu2tCeOA5tl69guz21R-29" value="False" style="edgeLabel;html=1;align=center;verticalAlign=middle;resizable=0;points=[];" parent="ESu2tCeOA5tl69guz21R-25" vertex="1" connectable="0">
          <mxGeometry x="-0.4098" y="1" relative="1" as="geometry">
            <mxPoint as="offset" />
          </mxGeometry>
        </mxCell>
        <mxCell id="ESu2tCeOA5tl69guz21R-27" value="" style="edgeStyle=orthogonalEdgeStyle;rounded=0;orthogonalLoop=1;jettySize=auto;html=1;" parent="WIyWlLk6GJQsqaUBKTNV-1" source="ESu2tCeOA5tl69guz21R-10" target="ESu2tCeOA5tl69guz21R-26" edge="1">
          <mxGeometry relative="1" as="geometry" />
        </mxCell>
        <mxCell id="ESu2tCeOA5tl69guz21R-28" value="True" style="edgeLabel;html=1;align=center;verticalAlign=middle;resizable=0;points=[];" parent="ESu2tCeOA5tl69guz21R-27" vertex="1" connectable="0">
          <mxGeometry x="-0.1267" y="1" relative="1" as="geometry">
            <mxPoint as="offset" />
          </mxGeometry>
        </mxCell>
        <mxCell id="ESu2tCeOA5tl69guz21R-10" value="y&amp;gt;z" style="rhombus;whiteSpace=wrap;html=1;" parent="WIyWlLk6GJQsqaUBKTNV-1" vertex="1">
          <mxGeometry x="710" y="-1465" width="80" height="80" as="geometry" />
        </mxCell>
        <mxCell id="ESu2tCeOA5tl69guz21R-18" value="" style="edgeStyle=orthogonalEdgeStyle;rounded=0;orthogonalLoop=1;jettySize=auto;html=1;" parent="WIyWlLk6GJQsqaUBKTNV-1" source="ESu2tCeOA5tl69guz21R-14" target="ESu2tCeOA5tl69guz21R-17" edge="1">
          <mxGeometry relative="1" as="geometry" />
        </mxCell>
        <mxCell id="ESu2tCeOA5tl69guz21R-19" value="True" style="edgeLabel;html=1;align=center;verticalAlign=middle;resizable=0;points=[];" parent="ESu2tCeOA5tl69guz21R-18" vertex="1" connectable="0">
          <mxGeometry x="-0.2914" relative="1" as="geometry">
            <mxPoint as="offset" />
          </mxGeometry>
        </mxCell>
        <mxCell id="ESu2tCeOA5tl69guz21R-21" value="" style="edgeStyle=orthogonalEdgeStyle;rounded=0;orthogonalLoop=1;jettySize=auto;html=1;" parent="WIyWlLk6GJQsqaUBKTNV-1" source="ESu2tCeOA5tl69guz21R-14" target="ESu2tCeOA5tl69guz21R-20" edge="1">
          <mxGeometry relative="1" as="geometry" />
        </mxCell>
        <mxCell id="ESu2tCeOA5tl69guz21R-22" value="False" style="edgeLabel;html=1;align=center;verticalAlign=middle;resizable=0;points=[];" parent="ESu2tCeOA5tl69guz21R-21" vertex="1" connectable="0">
          <mxGeometry x="-0.24" y="-2" relative="1" as="geometry">
            <mxPoint as="offset" />
          </mxGeometry>
        </mxCell>
        <mxCell id="ESu2tCeOA5tl69guz21R-14" value="x&amp;gt;z" style="rhombus;whiteSpace=wrap;html=1;" parent="WIyWlLk6GJQsqaUBKTNV-1" vertex="1">
          <mxGeometry x="560" y="-1340" width="80" height="80" as="geometry" />
        </mxCell>
        <mxCell id="ESu2tCeOA5tl69guz21R-17" value="En boyuk eded x-dir" style="shape=document;whiteSpace=wrap;html=1;boundedLbl=1;" parent="WIyWlLk6GJQsqaUBKTNV-1" vertex="1">
          <mxGeometry x="370" y="-1340" width="120" height="80" as="geometry" />
        </mxCell>
        <mxCell id="ESu2tCeOA5tl69guz21R-33" style="edgeStyle=orthogonalEdgeStyle;rounded=0;orthogonalLoop=1;jettySize=auto;html=1;entryX=1;entryY=0.5;entryDx=0;entryDy=0;" parent="WIyWlLk6GJQsqaUBKTNV-1" source="ESu2tCeOA5tl69guz21R-20" target="ESu2tCeOA5tl69guz21R-30" edge="1">
          <mxGeometry relative="1" as="geometry">
            <Array as="points">
              <mxPoint x="610" y="-970" />
            </Array>
          </mxGeometry>
        </mxCell>
        <mxCell id="ESu2tCeOA5tl69guz21R-20" value="En boyuk eded z-dir" style="shape=document;whiteSpace=wrap;html=1;boundedLbl=1;" parent="WIyWlLk6GJQsqaUBKTNV-1" vertex="1">
          <mxGeometry x="540" y="-1210" width="120" height="80" as="geometry" />
        </mxCell>
        <mxCell id="ESu2tCeOA5tl69guz21R-34" style="edgeStyle=orthogonalEdgeStyle;rounded=0;orthogonalLoop=1;jettySize=auto;html=1;" parent="WIyWlLk6GJQsqaUBKTNV-1" source="ESu2tCeOA5tl69guz21R-26" edge="1">
          <mxGeometry relative="1" as="geometry">
            <mxPoint x="610" y="-970" as="targetPoint" />
            <Array as="points">
              <mxPoint x="910" y="-990" />
              <mxPoint x="611" y="-990" />
            </Array>
          </mxGeometry>
        </mxCell>
        <mxCell id="ESu2tCeOA5tl69guz21R-26" value="En boyuk eded y-dir" style="shape=document;whiteSpace=wrap;html=1;boundedLbl=1;" parent="WIyWlLk6GJQsqaUBKTNV-1" vertex="1">
          <mxGeometry x="850" y="-1465" width="120" height="80" as="geometry" />
        </mxCell>
        <mxCell id="ESu2tCeOA5tl69guz21R-30" value="END" style="rounded=1;whiteSpace=wrap;html=1;" parent="WIyWlLk6GJQsqaUBKTNV-1" vertex="1">
          <mxGeometry x="390" y="-1000" width="120" height="60" as="geometry" />
        </mxCell>
        <mxCell id="ESu2tCeOA5tl69guz21R-32" style="edgeStyle=orthogonalEdgeStyle;rounded=0;orthogonalLoop=1;jettySize=auto;html=1;entryX=0.33;entryY=-0.013;entryDx=0;entryDy=0;entryPerimeter=0;" parent="WIyWlLk6GJQsqaUBKTNV-1" source="ESu2tCeOA5tl69guz21R-17" target="ESu2tCeOA5tl69guz21R-30" edge="1">
          <mxGeometry relative="1" as="geometry" />
        </mxCell>
        <mxCell id="ESu2tCeOA5tl69guz21R-35" value="&lt;h1&gt;&lt;font style=&quot;font-size: 24px;&quot;&gt;Task 1:&lt;/font&gt;&lt;/h1&gt;&lt;p&gt;&lt;font style=&quot;font-size: 18px;&quot;&gt;X, Y, Z ədədləri verilib. Bu ədədlərdən ən böyüyünü tapan alqoritmi qurun.&lt;/font&gt;&lt;/p&gt;" style="text;html=1;strokeColor=none;fillColor=none;spacing=5;spacingTop=-20;whiteSpace=wrap;overflow=hidden;rounded=0;" parent="WIyWlLk6GJQsqaUBKTNV-1" vertex="1">
          <mxGeometry x="40" y="-1823" width="300" height="140" as="geometry" />
        </mxCell>
        <mxCell id="ESu2tCeOA5tl69guz21R-36" value="&lt;font style=&quot;font-size: 18px;&quot;&gt;&lt;b&gt;&lt;i&gt;I method:&lt;/i&gt;&lt;/b&gt;&lt;/font&gt;" style="text;html=1;strokeColor=none;fillColor=none;align=center;verticalAlign=middle;whiteSpace=wrap;rounded=0;" parent="WIyWlLk6GJQsqaUBKTNV-1" vertex="1">
          <mxGeometry x="200" y="-1655" width="130" height="30" as="geometry" />
        </mxCell>
        <mxCell id="ESu2tCeOA5tl69guz21R-39" value="" style="edgeStyle=orthogonalEdgeStyle;rounded=0;orthogonalLoop=1;jettySize=auto;html=1;" parent="WIyWlLk6GJQsqaUBKTNV-1" source="ESu2tCeOA5tl69guz21R-37" target="ESu2tCeOA5tl69guz21R-38" edge="1">
          <mxGeometry relative="1" as="geometry" />
        </mxCell>
        <mxCell id="ESu2tCeOA5tl69guz21R-37" value="START" style="rounded=1;whiteSpace=wrap;html=1;" parent="WIyWlLk6GJQsqaUBKTNV-1" vertex="1">
          <mxGeometry x="480" y="-810" width="120" height="60" as="geometry" />
        </mxCell>
        <mxCell id="ESu2tCeOA5tl69guz21R-41" value="" style="edgeStyle=orthogonalEdgeStyle;rounded=0;orthogonalLoop=1;jettySize=auto;html=1;" parent="WIyWlLk6GJQsqaUBKTNV-1" source="ESu2tCeOA5tl69guz21R-38" target="ESu2tCeOA5tl69guz21R-40" edge="1">
          <mxGeometry relative="1" as="geometry" />
        </mxCell>
        <mxCell id="ESu2tCeOA5tl69guz21R-38" value="int x,&lt;br style=&quot;border-color: var(--border-color);&quot;&gt;int y,&lt;br style=&quot;border-color: var(--border-color);&quot;&gt;int z" style="shape=parallelogram;perimeter=parallelogramPerimeter;whiteSpace=wrap;html=1;fixedSize=1;" parent="WIyWlLk6GJQsqaUBKTNV-1" vertex="1">
          <mxGeometry x="480" y="-710" width="120" height="60" as="geometry" />
        </mxCell>
        <mxCell id="ESu2tCeOA5tl69guz21R-47" value="" style="edgeStyle=orthogonalEdgeStyle;rounded=0;orthogonalLoop=1;jettySize=auto;html=1;" parent="WIyWlLk6GJQsqaUBKTNV-1" source="ESu2tCeOA5tl69guz21R-40" target="ESu2tCeOA5tl69guz21R-46" edge="1">
          <mxGeometry relative="1" as="geometry" />
        </mxCell>
        <mxCell id="ESu2tCeOA5tl69guz21R-48" value="False" style="edgeLabel;html=1;align=center;verticalAlign=middle;resizable=0;points=[];" parent="ESu2tCeOA5tl69guz21R-47" vertex="1" connectable="0">
          <mxGeometry x="-0.1371" y="-1" relative="1" as="geometry">
            <mxPoint as="offset" />
          </mxGeometry>
        </mxCell>
        <mxCell id="ESu2tCeOA5tl69guz21R-40" value="x==y &amp;amp;&amp;amp; y==z" style="rhombus;whiteSpace=wrap;html=1;" parent="WIyWlLk6GJQsqaUBKTNV-1" vertex="1">
          <mxGeometry x="475" y="-610" width="130" height="120" as="geometry" />
        </mxCell>
        <mxCell id="ESu2tCeOA5tl69guz21R-107" style="edgeStyle=orthogonalEdgeStyle;rounded=0;orthogonalLoop=1;jettySize=auto;html=1;entryX=0;entryY=0.5;entryDx=0;entryDy=0;" parent="WIyWlLk6GJQsqaUBKTNV-1" source="ESu2tCeOA5tl69guz21R-42" target="ESu2tCeOA5tl69guz21R-106" edge="1">
          <mxGeometry relative="1" as="geometry">
            <Array as="points">
              <mxPoint y="-540" />
              <mxPoint y="440" />
            </Array>
          </mxGeometry>
        </mxCell>
        <mxCell id="ESu2tCeOA5tl69guz21R-42" value="Ededler beraberdir" style="shape=document;whiteSpace=wrap;html=1;boundedLbl=1;" parent="WIyWlLk6GJQsqaUBKTNV-1" vertex="1">
          <mxGeometry x="210" y="-580" width="120" height="80" as="geometry" />
        </mxCell>
        <mxCell id="ESu2tCeOA5tl69guz21R-44" style="edgeStyle=orthogonalEdgeStyle;rounded=0;orthogonalLoop=1;jettySize=auto;html=1;entryX=1.013;entryY=0.39;entryDx=0;entryDy=0;entryPerimeter=0;" parent="WIyWlLk6GJQsqaUBKTNV-1" source="ESu2tCeOA5tl69guz21R-40" target="ESu2tCeOA5tl69guz21R-42" edge="1">
          <mxGeometry relative="1" as="geometry" />
        </mxCell>
        <mxCell id="ESu2tCeOA5tl69guz21R-45" value="True" style="edgeLabel;html=1;align=center;verticalAlign=middle;resizable=0;points=[];" parent="ESu2tCeOA5tl69guz21R-44" vertex="1" connectable="0">
          <mxGeometry x="0.2223" y="-1" relative="1" as="geometry">
            <mxPoint as="offset" />
          </mxGeometry>
        </mxCell>
        <mxCell id="ESu2tCeOA5tl69guz21R-50" value="" style="edgeStyle=orthogonalEdgeStyle;rounded=0;orthogonalLoop=1;jettySize=auto;html=1;" parent="WIyWlLk6GJQsqaUBKTNV-1" source="ESu2tCeOA5tl69guz21R-46" target="ESu2tCeOA5tl69guz21R-49" edge="1">
          <mxGeometry relative="1" as="geometry" />
        </mxCell>
        <mxCell id="ESu2tCeOA5tl69guz21R-51" value="True" style="edgeLabel;html=1;align=center;verticalAlign=middle;resizable=0;points=[];" parent="ESu2tCeOA5tl69guz21R-50" vertex="1" connectable="0">
          <mxGeometry x="-0.0145" relative="1" as="geometry">
            <mxPoint as="offset" />
          </mxGeometry>
        </mxCell>
        <mxCell id="ESu2tCeOA5tl69guz21R-53" value="" style="edgeStyle=orthogonalEdgeStyle;rounded=0;orthogonalLoop=1;jettySize=auto;html=1;" parent="WIyWlLk6GJQsqaUBKTNV-1" source="ESu2tCeOA5tl69guz21R-46" target="ESu2tCeOA5tl69guz21R-52" edge="1">
          <mxGeometry relative="1" as="geometry" />
        </mxCell>
        <mxCell id="ESu2tCeOA5tl69guz21R-54" value="False" style="edgeLabel;html=1;align=center;verticalAlign=middle;resizable=0;points=[];" parent="ESu2tCeOA5tl69guz21R-53" vertex="1" connectable="0">
          <mxGeometry x="-0.304" y="1" relative="1" as="geometry">
            <mxPoint as="offset" />
          </mxGeometry>
        </mxCell>
        <mxCell id="ESu2tCeOA5tl69guz21R-46" value="x==y" style="rhombus;whiteSpace=wrap;html=1;" parent="WIyWlLk6GJQsqaUBKTNV-1" vertex="1">
          <mxGeometry x="500" y="-420" width="80" height="80" as="geometry" />
        </mxCell>
        <mxCell id="ESu2tCeOA5tl69guz21R-56" value="" style="edgeStyle=orthogonalEdgeStyle;rounded=0;orthogonalLoop=1;jettySize=auto;html=1;" parent="WIyWlLk6GJQsqaUBKTNV-1" source="ESu2tCeOA5tl69guz21R-49" target="ESu2tCeOA5tl69guz21R-55" edge="1">
          <mxGeometry relative="1" as="geometry" />
        </mxCell>
        <mxCell id="ESu2tCeOA5tl69guz21R-57" value="True" style="edgeLabel;html=1;align=center;verticalAlign=middle;resizable=0;points=[];" parent="ESu2tCeOA5tl69guz21R-56" vertex="1" connectable="0">
          <mxGeometry x="-0.175" y="2" relative="1" as="geometry">
            <mxPoint as="offset" />
          </mxGeometry>
        </mxCell>
        <mxCell id="ESu2tCeOA5tl69guz21R-59" value="" style="edgeStyle=orthogonalEdgeStyle;rounded=0;orthogonalLoop=1;jettySize=auto;html=1;" parent="WIyWlLk6GJQsqaUBKTNV-1" source="ESu2tCeOA5tl69guz21R-49" target="ESu2tCeOA5tl69guz21R-58" edge="1">
          <mxGeometry relative="1" as="geometry" />
        </mxCell>
        <mxCell id="ESu2tCeOA5tl69guz21R-60" value="False" style="edgeLabel;html=1;align=center;verticalAlign=middle;resizable=0;points=[];" parent="ESu2tCeOA5tl69guz21R-59" vertex="1" connectable="0">
          <mxGeometry x="-0.24" y="-1" relative="1" as="geometry">
            <mxPoint as="offset" />
          </mxGeometry>
        </mxCell>
        <mxCell id="ESu2tCeOA5tl69guz21R-49" value="x&amp;gt;z" style="rhombus;whiteSpace=wrap;html=1;" parent="WIyWlLk6GJQsqaUBKTNV-1" vertex="1">
          <mxGeometry x="310" y="-420" width="80" height="80" as="geometry" />
        </mxCell>
        <mxCell id="ESu2tCeOA5tl69guz21R-62" value="" style="edgeStyle=orthogonalEdgeStyle;rounded=0;orthogonalLoop=1;jettySize=auto;html=1;" parent="WIyWlLk6GJQsqaUBKTNV-1" source="ESu2tCeOA5tl69guz21R-52" target="ESu2tCeOA5tl69guz21R-61" edge="1">
          <mxGeometry relative="1" as="geometry" />
        </mxCell>
        <mxCell id="ESu2tCeOA5tl69guz21R-63" value="True" style="edgeLabel;html=1;align=center;verticalAlign=middle;resizable=0;points=[];" parent="ESu2tCeOA5tl69guz21R-62" vertex="1" connectable="0">
          <mxGeometry x="-0.3378" y="1" relative="1" as="geometry">
            <mxPoint as="offset" />
          </mxGeometry>
        </mxCell>
        <mxCell id="ESu2tCeOA5tl69guz21R-65" style="edgeStyle=orthogonalEdgeStyle;rounded=0;orthogonalLoop=1;jettySize=auto;html=1;entryX=0.5;entryY=0;entryDx=0;entryDy=0;" parent="WIyWlLk6GJQsqaUBKTNV-1" source="ESu2tCeOA5tl69guz21R-52" target="ESu2tCeOA5tl69guz21R-64" edge="1">
          <mxGeometry relative="1" as="geometry" />
        </mxCell>
        <mxCell id="ESu2tCeOA5tl69guz21R-66" value="False" style="edgeLabel;html=1;align=center;verticalAlign=middle;resizable=0;points=[];" parent="ESu2tCeOA5tl69guz21R-65" vertex="1" connectable="0">
          <mxGeometry x="-0.2076" y="-4" relative="1" as="geometry">
            <mxPoint as="offset" />
          </mxGeometry>
        </mxCell>
        <mxCell id="ESu2tCeOA5tl69guz21R-52" value="y==z" style="rhombus;whiteSpace=wrap;html=1;" parent="WIyWlLk6GJQsqaUBKTNV-1" vertex="1">
          <mxGeometry x="680" y="-420" width="80" height="80" as="geometry" />
        </mxCell>
        <mxCell id="ESu2tCeOA5tl69guz21R-109" style="edgeStyle=orthogonalEdgeStyle;rounded=0;orthogonalLoop=1;jettySize=auto;html=1;" parent="WIyWlLk6GJQsqaUBKTNV-1" source="ESu2tCeOA5tl69guz21R-55" edge="1">
          <mxGeometry relative="1" as="geometry">
            <mxPoint y="-260" as="targetPoint" />
          </mxGeometry>
        </mxCell>
        <mxCell id="ESu2tCeOA5tl69guz21R-55" value="Ededlerden en boyuyu x ve y-dir" style="shape=document;whiteSpace=wrap;html=1;boundedLbl=1;" parent="WIyWlLk6GJQsqaUBKTNV-1" vertex="1">
          <mxGeometry x="80" y="-300" width="120" height="80" as="geometry" />
        </mxCell>
        <mxCell id="ESu2tCeOA5tl69guz21R-111" style="edgeStyle=orthogonalEdgeStyle;rounded=0;orthogonalLoop=1;jettySize=auto;html=1;" parent="WIyWlLk6GJQsqaUBKTNV-1" source="ESu2tCeOA5tl69guz21R-58" edge="1">
          <mxGeometry relative="1" as="geometry">
            <mxPoint y="-150" as="targetPoint" />
            <Array as="points">
              <mxPoint x="350" y="-160" />
              <mxPoint x="1" y="-160" />
            </Array>
          </mxGeometry>
        </mxCell>
        <mxCell id="ESu2tCeOA5tl69guz21R-58" value="En boyuk eded z-dir" style="shape=document;whiteSpace=wrap;html=1;boundedLbl=1;" parent="WIyWlLk6GJQsqaUBKTNV-1" vertex="1">
          <mxGeometry x="290" y="-300" width="120" height="80" as="geometry" />
        </mxCell>
        <mxCell id="ESu2tCeOA5tl69guz21R-68" value="" style="edgeStyle=orthogonalEdgeStyle;rounded=0;orthogonalLoop=1;jettySize=auto;html=1;" parent="WIyWlLk6GJQsqaUBKTNV-1" source="ESu2tCeOA5tl69guz21R-61" target="ESu2tCeOA5tl69guz21R-67" edge="1">
          <mxGeometry relative="1" as="geometry" />
        </mxCell>
        <mxCell id="ESu2tCeOA5tl69guz21R-70" value="False" style="edgeLabel;html=1;align=center;verticalAlign=middle;resizable=0;points=[];" parent="ESu2tCeOA5tl69guz21R-68" vertex="1" connectable="0">
          <mxGeometry x="-0.12" y="-1" relative="1" as="geometry">
            <mxPoint as="offset" />
          </mxGeometry>
        </mxCell>
        <mxCell id="ESu2tCeOA5tl69guz21R-71" style="edgeStyle=orthogonalEdgeStyle;rounded=0;orthogonalLoop=1;jettySize=auto;html=1;entryX=0.5;entryY=0;entryDx=0;entryDy=0;" parent="WIyWlLk6GJQsqaUBKTNV-1" source="ESu2tCeOA5tl69guz21R-61" target="ESu2tCeOA5tl69guz21R-69" edge="1">
          <mxGeometry relative="1" as="geometry" />
        </mxCell>
        <mxCell id="ESu2tCeOA5tl69guz21R-73" value="True" style="edgeLabel;html=1;align=center;verticalAlign=middle;resizable=0;points=[];" parent="ESu2tCeOA5tl69guz21R-71" vertex="1" connectable="0">
          <mxGeometry x="-0.268" y="-1" relative="1" as="geometry">
            <mxPoint as="offset" />
          </mxGeometry>
        </mxCell>
        <mxCell id="ESu2tCeOA5tl69guz21R-61" value="y&amp;gt;x" style="rhombus;whiteSpace=wrap;html=1;" parent="WIyWlLk6GJQsqaUBKTNV-1" vertex="1">
          <mxGeometry x="850" y="-420" width="80" height="80" as="geometry" />
        </mxCell>
        <mxCell id="ESu2tCeOA5tl69guz21R-75" style="edgeStyle=orthogonalEdgeStyle;rounded=0;orthogonalLoop=1;jettySize=auto;html=1;entryX=1;entryY=0.5;entryDx=0;entryDy=0;" parent="WIyWlLk6GJQsqaUBKTNV-1" source="ESu2tCeOA5tl69guz21R-64" target="ESu2tCeOA5tl69guz21R-74" edge="1">
          <mxGeometry relative="1" as="geometry" />
        </mxCell>
        <mxCell id="ESu2tCeOA5tl69guz21R-76" value="True" style="edgeLabel;html=1;align=center;verticalAlign=middle;resizable=0;points=[];" parent="ESu2tCeOA5tl69guz21R-75" vertex="1" connectable="0">
          <mxGeometry x="0.0147" y="-2" relative="1" as="geometry">
            <mxPoint as="offset" />
          </mxGeometry>
        </mxCell>
        <mxCell id="ESu2tCeOA5tl69guz21R-86" style="edgeStyle=orthogonalEdgeStyle;rounded=0;orthogonalLoop=1;jettySize=auto;html=1;entryX=0.5;entryY=0;entryDx=0;entryDy=0;" parent="WIyWlLk6GJQsqaUBKTNV-1" source="ESu2tCeOA5tl69guz21R-64" target="ESu2tCeOA5tl69guz21R-83" edge="1">
          <mxGeometry relative="1" as="geometry" />
        </mxCell>
        <mxCell id="ESu2tCeOA5tl69guz21R-87" value="False" style="edgeLabel;html=1;align=center;verticalAlign=middle;resizable=0;points=[];" parent="ESu2tCeOA5tl69guz21R-86" vertex="1" connectable="0">
          <mxGeometry x="-0.1255" y="-1" relative="1" as="geometry">
            <mxPoint as="offset" />
          </mxGeometry>
        </mxCell>
        <mxCell id="ESu2tCeOA5tl69guz21R-64" value="x==z" style="rhombus;whiteSpace=wrap;html=1;" parent="WIyWlLk6GJQsqaUBKTNV-1" vertex="1">
          <mxGeometry x="680" y="-130" width="80" height="80" as="geometry" />
        </mxCell>
        <mxCell id="ESu2tCeOA5tl69guz21R-116" style="edgeStyle=orthogonalEdgeStyle;rounded=0;orthogonalLoop=1;jettySize=auto;html=1;" parent="WIyWlLk6GJQsqaUBKTNV-1" source="ESu2tCeOA5tl69guz21R-67" edge="1">
          <mxGeometry relative="1" as="geometry">
            <mxPoint x="1520" y="-110" as="targetPoint" />
            <Array as="points">
              <mxPoint x="890" y="-120" />
              <mxPoint x="1521" y="-120" />
            </Array>
          </mxGeometry>
        </mxCell>
        <mxCell id="ESu2tCeOA5tl69guz21R-67" value="En boyuk eded x-dir" style="shape=document;whiteSpace=wrap;html=1;boundedLbl=1;" parent="WIyWlLk6GJQsqaUBKTNV-1" vertex="1">
          <mxGeometry x="830" y="-260" width="120" height="80" as="geometry" />
        </mxCell>
        <mxCell id="ESu2tCeOA5tl69guz21R-115" style="edgeStyle=orthogonalEdgeStyle;rounded=0;orthogonalLoop=1;jettySize=auto;html=1;entryX=1;entryY=0.5;entryDx=0;entryDy=0;" parent="WIyWlLk6GJQsqaUBKTNV-1" source="ESu2tCeOA5tl69guz21R-69" target="ESu2tCeOA5tl69guz21R-106" edge="1">
          <mxGeometry relative="1" as="geometry">
            <Array as="points">
              <mxPoint x="1520" y="-220" />
              <mxPoint x="1520" y="450" />
            </Array>
          </mxGeometry>
        </mxCell>
        <mxCell id="ESu2tCeOA5tl69guz21R-69" value="Ededlerden en boyuyu y ve z-dir" style="shape=document;whiteSpace=wrap;html=1;boundedLbl=1;" parent="WIyWlLk6GJQsqaUBKTNV-1" vertex="1">
          <mxGeometry x="1050" y="-260" width="120" height="80" as="geometry" />
        </mxCell>
        <mxCell id="ESu2tCeOA5tl69guz21R-79" value="" style="edgeStyle=orthogonalEdgeStyle;rounded=0;orthogonalLoop=1;jettySize=auto;html=1;" parent="WIyWlLk6GJQsqaUBKTNV-1" source="ESu2tCeOA5tl69guz21R-74" target="ESu2tCeOA5tl69guz21R-78" edge="1">
          <mxGeometry relative="1" as="geometry" />
        </mxCell>
        <mxCell id="ESu2tCeOA5tl69guz21R-80" value="False" style="edgeLabel;html=1;align=center;verticalAlign=middle;resizable=0;points=[];" parent="ESu2tCeOA5tl69guz21R-79" vertex="1" connectable="0">
          <mxGeometry x="-0.2178" relative="1" as="geometry">
            <mxPoint as="offset" />
          </mxGeometry>
        </mxCell>
        <mxCell id="ESu2tCeOA5tl69guz21R-81" style="edgeStyle=orthogonalEdgeStyle;rounded=0;orthogonalLoop=1;jettySize=auto;html=1;entryX=0.5;entryY=0;entryDx=0;entryDy=0;" parent="WIyWlLk6GJQsqaUBKTNV-1" source="ESu2tCeOA5tl69guz21R-74" target="ESu2tCeOA5tl69guz21R-77" edge="1">
          <mxGeometry relative="1" as="geometry" />
        </mxCell>
        <mxCell id="ESu2tCeOA5tl69guz21R-82" value="True" style="edgeLabel;html=1;align=center;verticalAlign=middle;resizable=0;points=[];" parent="ESu2tCeOA5tl69guz21R-81" vertex="1" connectable="0">
          <mxGeometry x="-0.36" relative="1" as="geometry">
            <mxPoint as="offset" />
          </mxGeometry>
        </mxCell>
        <mxCell id="ESu2tCeOA5tl69guz21R-74" value="z&amp;gt;y" style="rhombus;whiteSpace=wrap;html=1;" parent="WIyWlLk6GJQsqaUBKTNV-1" vertex="1">
          <mxGeometry x="505" y="-130" width="80" height="80" as="geometry" />
        </mxCell>
        <mxCell id="ESu2tCeOA5tl69guz21R-112" style="edgeStyle=orthogonalEdgeStyle;rounded=0;orthogonalLoop=1;jettySize=auto;html=1;" parent="WIyWlLk6GJQsqaUBKTNV-1" source="ESu2tCeOA5tl69guz21R-77" edge="1">
          <mxGeometry relative="1" as="geometry">
            <mxPoint x="350" y="440" as="targetPoint" />
          </mxGeometry>
        </mxCell>
        <mxCell id="ESu2tCeOA5tl69guz21R-77" value="Ededlerden en boyuyu x ve z-dir" style="shape=document;whiteSpace=wrap;html=1;boundedLbl=1;" parent="WIyWlLk6GJQsqaUBKTNV-1" vertex="1">
          <mxGeometry x="290" y="40" width="120" height="80" as="geometry" />
        </mxCell>
        <mxCell id="ESu2tCeOA5tl69guz21R-113" style="edgeStyle=orthogonalEdgeStyle;rounded=0;orthogonalLoop=1;jettySize=auto;html=1;" parent="WIyWlLk6GJQsqaUBKTNV-1" source="ESu2tCeOA5tl69guz21R-78" edge="1">
          <mxGeometry relative="1" as="geometry">
            <mxPoint x="545" y="440" as="targetPoint" />
          </mxGeometry>
        </mxCell>
        <mxCell id="ESu2tCeOA5tl69guz21R-78" value="En boyuk eded y-dir" style="shape=document;whiteSpace=wrap;html=1;boundedLbl=1;" parent="WIyWlLk6GJQsqaUBKTNV-1" vertex="1">
          <mxGeometry x="485" y="40" width="120" height="80" as="geometry" />
        </mxCell>
        <mxCell id="ESu2tCeOA5tl69guz21R-90" style="edgeStyle=orthogonalEdgeStyle;rounded=0;orthogonalLoop=1;jettySize=auto;html=1;entryX=1;entryY=0.5;entryDx=0;entryDy=0;" parent="WIyWlLk6GJQsqaUBKTNV-1" source="ESu2tCeOA5tl69guz21R-83" target="ESu2tCeOA5tl69guz21R-89" edge="1">
          <mxGeometry relative="1" as="geometry" />
        </mxCell>
        <mxCell id="ESu2tCeOA5tl69guz21R-91" value="True" style="edgeLabel;html=1;align=center;verticalAlign=middle;resizable=0;points=[];" parent="ESu2tCeOA5tl69guz21R-90" vertex="1" connectable="0">
          <mxGeometry x="-0.2267" y="-1" relative="1" as="geometry">
            <mxPoint as="offset" />
          </mxGeometry>
        </mxCell>
        <mxCell id="ESu2tCeOA5tl69guz21R-99" style="edgeStyle=orthogonalEdgeStyle;rounded=0;orthogonalLoop=1;jettySize=auto;html=1;" parent="WIyWlLk6GJQsqaUBKTNV-1" source="ESu2tCeOA5tl69guz21R-83" edge="1">
          <mxGeometry relative="1" as="geometry">
            <mxPoint x="1160" as="targetPoint" />
          </mxGeometry>
        </mxCell>
        <mxCell id="ESu2tCeOA5tl69guz21R-100" value="False" style="edgeLabel;html=1;align=center;verticalAlign=middle;resizable=0;points=[];" parent="ESu2tCeOA5tl69guz21R-99" vertex="1" connectable="0">
          <mxGeometry x="-0.231" y="1" relative="1" as="geometry">
            <mxPoint as="offset" />
          </mxGeometry>
        </mxCell>
        <mxCell id="ESu2tCeOA5tl69guz21R-83" value="x&amp;gt;y" style="rhombus;whiteSpace=wrap;html=1;" parent="WIyWlLk6GJQsqaUBKTNV-1" vertex="1">
          <mxGeometry x="990" y="-40" width="80" height="80" as="geometry" />
        </mxCell>
        <mxCell id="ESu2tCeOA5tl69guz21R-94" style="edgeStyle=orthogonalEdgeStyle;rounded=0;orthogonalLoop=1;jettySize=auto;html=1;entryX=0.5;entryY=0;entryDx=0;entryDy=0;" parent="WIyWlLk6GJQsqaUBKTNV-1" source="ESu2tCeOA5tl69guz21R-89" target="ESu2tCeOA5tl69guz21R-93" edge="1">
          <mxGeometry relative="1" as="geometry" />
        </mxCell>
        <mxCell id="ESu2tCeOA5tl69guz21R-96" value="True" style="edgeLabel;html=1;align=center;verticalAlign=middle;resizable=0;points=[];" parent="ESu2tCeOA5tl69guz21R-94" vertex="1" connectable="0">
          <mxGeometry x="-0.4618" y="-1" relative="1" as="geometry">
            <mxPoint as="offset" />
          </mxGeometry>
        </mxCell>
        <mxCell id="ESu2tCeOA5tl69guz21R-95" value="" style="edgeStyle=orthogonalEdgeStyle;rounded=0;orthogonalLoop=1;jettySize=auto;html=1;" parent="WIyWlLk6GJQsqaUBKTNV-1" source="ESu2tCeOA5tl69guz21R-89" target="ESu2tCeOA5tl69guz21R-92" edge="1">
          <mxGeometry relative="1" as="geometry" />
        </mxCell>
        <mxCell id="ESu2tCeOA5tl69guz21R-97" value="False" style="edgeLabel;html=1;align=center;verticalAlign=middle;resizable=0;points=[];" parent="ESu2tCeOA5tl69guz21R-95" vertex="1" connectable="0">
          <mxGeometry x="-0.232" relative="1" as="geometry">
            <mxPoint as="offset" />
          </mxGeometry>
        </mxCell>
        <mxCell id="ESu2tCeOA5tl69guz21R-89" value="x&amp;gt;z" style="rhombus;whiteSpace=wrap;html=1;" parent="WIyWlLk6GJQsqaUBKTNV-1" vertex="1">
          <mxGeometry x="850" y="-40" width="80" height="80" as="geometry" />
        </mxCell>
        <mxCell id="gwPF_XeOje35G7nnJJXt-0" style="edgeStyle=orthogonalEdgeStyle;rounded=0;orthogonalLoop=1;jettySize=auto;html=1;" parent="WIyWlLk6GJQsqaUBKTNV-1" source="ESu2tCeOA5tl69guz21R-92" edge="1">
          <mxGeometry relative="1" as="geometry">
            <mxPoint x="890" y="450" as="targetPoint" />
          </mxGeometry>
        </mxCell>
        <mxCell id="ESu2tCeOA5tl69guz21R-92" value="En boyuk eded z-dir" style="shape=document;whiteSpace=wrap;html=1;boundedLbl=1;" parent="WIyWlLk6GJQsqaUBKTNV-1" vertex="1">
          <mxGeometry x="830" y="90" width="120" height="80" as="geometry" />
        </mxCell>
        <mxCell id="ESu2tCeOA5tl69guz21R-114" style="edgeStyle=orthogonalEdgeStyle;rounded=0;orthogonalLoop=1;jettySize=auto;html=1;entryX=0.5;entryY=0;entryDx=0;entryDy=0;" parent="WIyWlLk6GJQsqaUBKTNV-1" source="ESu2tCeOA5tl69guz21R-93" target="ESu2tCeOA5tl69guz21R-106" edge="1">
          <mxGeometry relative="1" as="geometry" />
        </mxCell>
        <mxCell id="ESu2tCeOA5tl69guz21R-93" value="En boyuk eded x-dir" style="shape=document;whiteSpace=wrap;html=1;boundedLbl=1;" parent="WIyWlLk6GJQsqaUBKTNV-1" vertex="1">
          <mxGeometry x="660" y="90" width="120" height="80" as="geometry" />
        </mxCell>
        <mxCell id="ESu2tCeOA5tl69guz21R-103" style="edgeStyle=orthogonalEdgeStyle;rounded=0;orthogonalLoop=1;jettySize=auto;html=1;entryX=0.5;entryY=0;entryDx=0;entryDy=0;" parent="WIyWlLk6GJQsqaUBKTNV-1" source="ESu2tCeOA5tl69guz21R-98" target="ESu2tCeOA5tl69guz21R-102" edge="1">
          <mxGeometry relative="1" as="geometry" />
        </mxCell>
        <mxCell id="ESu2tCeOA5tl69guz21R-104" value="True" style="edgeLabel;html=1;align=center;verticalAlign=middle;resizable=0;points=[];" parent="ESu2tCeOA5tl69guz21R-103" vertex="1" connectable="0">
          <mxGeometry x="-0.4436" y="2" relative="1" as="geometry">
            <mxPoint as="offset" />
          </mxGeometry>
        </mxCell>
        <mxCell id="ESu2tCeOA5tl69guz21R-98" value="y&amp;gt;z" style="rhombus;whiteSpace=wrap;html=1;" parent="WIyWlLk6GJQsqaUBKTNV-1" vertex="1">
          <mxGeometry x="1161" y="-40" width="80" height="80" as="geometry" />
        </mxCell>
        <mxCell id="ESu2tCeOA5tl69guz21R-101" style="edgeStyle=orthogonalEdgeStyle;rounded=0;orthogonalLoop=1;jettySize=auto;html=1;entryX=1.04;entryY=0.405;entryDx=0;entryDy=0;entryPerimeter=0;" parent="WIyWlLk6GJQsqaUBKTNV-1" source="ESu2tCeOA5tl69guz21R-98" target="ESu2tCeOA5tl69guz21R-92" edge="1">
          <mxGeometry relative="1" as="geometry">
            <Array as="points">
              <mxPoint x="1201" y="122" />
            </Array>
          </mxGeometry>
        </mxCell>
        <mxCell id="ESu2tCeOA5tl69guz21R-105" value="False" style="edgeLabel;html=1;align=center;verticalAlign=middle;resizable=0;points=[];" parent="ESu2tCeOA5tl69guz21R-101" vertex="1" connectable="0">
          <mxGeometry x="-0.7736" y="2" relative="1" as="geometry">
            <mxPoint as="offset" />
          </mxGeometry>
        </mxCell>
        <mxCell id="gwPF_XeOje35G7nnJJXt-2" style="edgeStyle=orthogonalEdgeStyle;rounded=0;orthogonalLoop=1;jettySize=auto;html=1;" parent="WIyWlLk6GJQsqaUBKTNV-1" source="ESu2tCeOA5tl69guz21R-102" edge="1">
          <mxGeometry relative="1" as="geometry">
            <mxPoint x="1340" y="450" as="targetPoint" />
          </mxGeometry>
        </mxCell>
        <mxCell id="ESu2tCeOA5tl69guz21R-102" value="En boyuk eded y-dir" style="shape=document;whiteSpace=wrap;html=1;boundedLbl=1;" parent="WIyWlLk6GJQsqaUBKTNV-1" vertex="1">
          <mxGeometry x="1280" y="80" width="120" height="80" as="geometry" />
        </mxCell>
        <mxCell id="ESu2tCeOA5tl69guz21R-106" value="END" style="rounded=1;whiteSpace=wrap;html=1;" parent="WIyWlLk6GJQsqaUBKTNV-1" vertex="1">
          <mxGeometry x="660" y="420" width="120" height="60" as="geometry" />
        </mxCell>
        <mxCell id="gwPF_XeOje35G7nnJJXt-1" style="edgeStyle=orthogonalEdgeStyle;rounded=0;orthogonalLoop=1;jettySize=auto;html=1;" parent="WIyWlLk6GJQsqaUBKTNV-1" source="ESu2tCeOA5tl69guz21R-102" target="ESu2tCeOA5tl69guz21R-102" edge="1">
          <mxGeometry relative="1" as="geometry" />
        </mxCell>
        <mxCell id="gwPF_XeOje35G7nnJJXt-3" value="&lt;font style=&quot;font-size: 18px;&quot;&gt;&lt;b&gt;&lt;i&gt;II method:&lt;/i&gt;&lt;/b&gt;&lt;/font&gt;" style="text;html=1;strokeColor=none;fillColor=none;align=center;verticalAlign=middle;whiteSpace=wrap;rounded=0;" parent="WIyWlLk6GJQsqaUBKTNV-1" vertex="1">
          <mxGeometry x="170" y="-795" width="120" height="30" as="geometry" />
        </mxCell>
      </root>
    </mxGraphModel>
  </diagram>
</mxfile>
